<svg xmlns="http://www.w3.org/2000/svg" viewBox="0 0 38.02 27.27"><defs><style>.cls-1{fill:#fff;}</style></defs><title>logo_2</title><g id="Layer_2" data-name="Layer 2"><g id="Layer_1-2" data-name="Layer 1"><path class="cls-1" d="M0,3.27H7L16,16.55V3.27h7v24H16L7,14.1V27.27H0Z"/><rect class="cls-1" x="16" y="0.27" width="7" height="4"/><path class="cls-1" d="M16,22.38V0H27.53a16.6,16.6,0,0,1,4.9.55,5.24,5.24,0,0,1,2.73,2,6.11,6.11,0,0,1,1,3.62,6.22,6.22,0,0,1-.79,3.22,6.21,6.21,0,0,1-2.19,2.19,8.45,8.45,0,0,1-2.42.89,6.76,6.76,0,0,1,1.79.82,6.58,6.58,0,0,1,1.11,1.18,8.61,8.61,0,0,1,1,1.39L38,22.38H30.2l-3.69-6.84a5.16,5.16,0,0,0-1.26-1.72,2.84,2.84,0,0,0-1.69-.52H23v9.08ZM23,9.07h2.92a10.08,10.08,0,0,0,1.83-.31,1.79,1.79,0,0,0,1.12-.7,2.06,2.06,0,0,0,.43-1.3,2,2,0,0,0-.68-1.66A4.14,4.14,0,0,0,26,4.52H23Z"/></g></g></svg>